<?xml version="1.0" encoding="UTF-8"?>
<svg version="1.1" xmlns="http://www.w3.org/2000/svg" width="48" height="48">
<path d="M0 0 C3.609375 -0.185625 7.21875 -0.37125 10.9375 -0.5625 C12.05632568 -0.64443604 13.17515137 -0.72637207 14.32788086 -0.81079102 C20.00889208 -0.95089551 23.75966487 -0.17791383 28.21875 3.46875 C34.0077009 10.09973012 32.97672855 17.76693181 32.5625 26.0625 C32.2840625 33.9515625 32.2840625 33.9515625 32 42 C21.44 42 10.88 42 0 42 C0 28.14 0 14.28 0 0 Z " fill="#398E3D" transform="translate(8,3)"/>
<path d="M0 0 C1.32 0 2.64 0 4 0 C4.66 0.99 5.32 1.98 6 3 C6.66 2.01 7.32 1.02 8 0 C8.99 0 9.98 0 11 0 C10.649375 0.721875 10.29875 1.44375 9.9375 2.1875 C8.55966427 6.32100718 9.65739827 8.9721948 11 13 C9.0625 12.625 9.0625 12.625 7 12 C6.67 11.34 6.34 10.68 6 10 C5.01 11.485 5.01 11.485 4 13 C2.68 12.67 1.36 12.34 0 12 C0.66 11.01 1.32 10.02 2 9 C2.37198336 5.37316225 1.85274014 3.12649899 0 0 Z " fill="#EEF5EE" transform="translate(18,22)"/>
<path d="M0 0 C6.75 5.625 6.75 5.625 9 9 C6.03 9 3.06 9 0 9 C0 6.03 0 3.06 0 0 Z " fill="#E4F2E5" transform="translate(29,5)"/>
</svg>
