<?xml version="1.0" encoding="UTF-8"?>
<svg version="1.1" xmlns="http://www.w3.org/2000/svg" width="50" height="50">
<path d="M0 0 C3.939375 -0.185625 7.87875 -0.37125 11.9375 -0.5625 C13.16073975 -0.64443604 14.38397949 -0.72637207 15.64428711 -0.81079102 C21.52131256 -0.94387194 25.62639168 -0.34911879 30.28125 3.40625 C36.18330145 10.25338575 34.96148448 18.56377751 34.5625 27.0625 C34.376875 32.651875 34.19125 38.24125 34 44 C22.78 44 11.56 44 0 44 C0 29.48 0 14.96 0 0 Z " fill="#FE5924" transform="translate(8,3)"/>
<path d="M0 0 C3.93089159 3.2633817 6.91174115 5.88232154 10 10 C6.7 10 3.4 10 0 10 C0 6.7 0 3.4 0 0 Z " fill="#FBD6CD" transform="translate(30,5)"/>
<path d="M0 0 C1.32 0.33 2.64 0.66 4 1 C3.34 1 2.68 1 2 1 C2 2.32 2 3.64 2 5 C2.99 5 3.98 5 5 5 C5 3.68 5 2.36 5 1 C5.66 1 6.32 1 7 1 C7 2.65 7 4.3 7 6 C5.68 6.33 4.36 6.66 3 7 C3 8.32 3 9.64 3 11 C2.01 11 1.02 11 0 11 C0 7.37 0 3.74 0 0 Z " fill="#FFCCC3" transform="translate(14,24)"/>
<path d="M0 0 C1.98 0 3.96 0 6 0 C6 0.66 6 1.32 6 2 C4.68 2 3.36 2 2 2 C2 2.66 2 3.32 2 4 C2.99 4 3.98 4 5 4 C5 4.66 5 5.32 5 6 C4.01 6 3.02 6 2 6 C2 7.32 2 8.64 2 10 C1.34 10 0.68 10 0 10 C0 6.7 0 3.4 0 0 Z " fill="#FFDEDC" transform="translate(31,24)"/>
<path d="M0 0 C0.99 0.33 1.98 0.66 3 1 C2.67 3.31 2.34 5.62 2 8 C4.33075929 7.04134491 4.33075929 7.04134491 6 4 C6.042721 5.66611905 6.04063832 7.33382885 6 9 C5.67 9.33 5.34 9.66 5 10 C3.35 10 1.7 10 0 10 C0 6.7 0 3.4 0 0 Z " fill="#FFDDDA" transform="translate(23,24)"/>
<path d="M0 0 C0.99 0.33 1.98 0.66 3 1 C2.67 2.98 2.34 4.96 2 7 C1.01 7.33 0.02 7.66 -1 8 C-1.04241723 5.66705225 -1.04092937 3.33297433 -1 1 C-0.67 0.67 -0.34 0.34 0 0 Z " fill="#FF9577" transform="translate(26,24)"/>
</svg>
