<?xml version="1.0" encoding="UTF-8"?>
<svg version="1.1" xmlns="http://www.w3.org/2000/svg" width="80" height="80">
<path d="M0 0 C21.12 0 42.24 0 64 0 C64 18.48 64 36.96 64 56 C42.88 56 21.76 56 0 56 C0 37.52 0 19.04 0 0 Z M3 2 C3 3.32 3 4.64 3 6 C4.65 5.67 6.3 5.34 8 5 C7.67 4.01 7.34 3.02 7 2 C5.68 2 4.36 2 3 2 Z M10 2 C10 19.16 10 36.32 10 54 C24.52 54 39.04 54 54 54 C54 36.84 54 19.68 54 2 C39.48 2 24.96 2 10 2 Z M57 2 C57 3.32 57 4.64 57 6 C58.65 5.67 60.3 5.34 62 5 C61.67 4.01 61.34 3.02 61 2 C59.68 2 58.36 2 57 2 Z M3 8 C3 9.32 3 10.64 3 12 C4.65 11.67 6.3 11.34 8 11 C7.67 10.01 7.34 9.02 7 8 C5.68 8 4.36 8 3 8 Z M57 8 C57 9.32 57 10.64 57 12 C58.65 11.67 60.3 11.34 62 11 C61.67 10.01 61.34 9.02 61 8 C59.68 8 58.36 8 57 8 Z M3 14 C3 15.32 3 16.64 3 18 C4.65 17.67 6.3 17.34 8 17 C7.67 16.01 7.34 15.02 7 14 C5.68 14 4.36 14 3 14 Z M57 14 C57 15.32 57 16.64 57 18 C58.65 17.67 60.3 17.34 62 17 C61.67 16.01 61.34 15.02 61 14 C59.68 14 58.36 14 57 14 Z M3 20 C3 21.32 3 22.64 3 24 C4.65 23.67 6.3 23.34 8 23 C7.67 22.01 7.34 21.02 7 20 C5.68 20 4.36 20 3 20 Z M57 20 C57 21.32 57 22.64 57 24 C58.65 23.67 60.3 23.34 62 23 C61.67 22.01 61.34 21.02 61 20 C59.68 20 58.36 20 57 20 Z M3 26 C3 27.32 3 28.64 3 30 C4.65 29.67 6.3 29.34 8 29 C7.67 28.01 7.34 27.02 7 26 C5.68 26 4.36 26 3 26 Z M57 26 C57 27.32 57 28.64 57 30 C58.65 29.67 60.3 29.34 62 29 C61.67 28.01 61.34 27.02 61 26 C59.68 26 58.36 26 57 26 Z M3 32 C3 33.32 3 34.64 3 36 C4.65 35.67 6.3 35.34 8 35 C7.67 34.01 7.34 33.02 7 32 C5.68 32 4.36 32 3 32 Z M57 32 C57 33.32 57 34.64 57 36 C58.65 35.67 60.3 35.34 62 35 C61.67 34.01 61.34 33.02 61 32 C59.68 32 58.36 32 57 32 Z M3 38 C3 39.32 3 40.64 3 42 C4.65 41.67 6.3 41.34 8 41 C7.67 40.01 7.34 39.02 7 38 C5.68 38 4.36 38 3 38 Z M57 38 C57 39.32 57 40.64 57 42 C58.65 41.67 60.3 41.34 62 41 C61.67 40.01 61.34 39.02 61 38 C59.68 38 58.36 38 57 38 Z M3 44 C3 45.32 3 46.64 3 48 C4.65 47.67 6.3 47.34 8 47 C7.67 46.01 7.34 45.02 7 44 C5.68 44 4.36 44 3 44 Z M57 44 C57 45.32 57 46.64 57 48 C58.65 47.67 60.3 47.34 62 47 C61.67 46.01 61.34 45.02 61 44 C59.68 44 58.36 44 57 44 Z M3 50 C3 51.32 3 52.64 3 54 C4.65 53.67 6.3 53.34 8 53 C7.67 52.01 7.34 51.02 7 50 C5.68 50 4.36 50 3 50 Z M57 50 C57 51.32 57 52.64 57 54 C58.65 53.67 60.3 53.34 62 53 C61.67 52.01 61.34 51.02 61 50 C59.68 50 58.36 50 57 50 Z " fill="#000000" transform="translate(8,12)"/>
<path d="M0 0 C4.19075691 0.83815138 6.28073843 1.50669849 9.8125 3.5625 C10.60269531 4.01753906 11.39289062 4.47257812 12.20703125 4.94140625 C12.79871094 5.29074219 13.39039063 5.64007813 14 6 C14 7.32 14 8.64 14 10 C11.953125 11.703125 11.953125 11.703125 9.25 13.25 C8.36828125 13.77078125 7.4865625 14.2915625 6.578125 14.828125 C4 16 4 16 0 16 C0 10.72 0 5.44 0 0 Z " fill="#000000" transform="translate(33,32)"/>
<path d="M0 0 C0.66 0 1.32 0 2 0 C2 0.66 2 1.32 2 2 C1.34 2 0.68 2 0 2 C0 1.34 0 0.68 0 0 Z " fill="#000000" transform="translate(55,60)"/>
<path d="M0 0 C0.66 0 1.32 0 2 0 C2 0.66 2 1.32 2 2 C1.34 2 0.68 2 0 2 C0 1.34 0 0.68 0 0 Z " fill="#000000" transform="translate(51,60)"/>
<path d="M0 0 C0.66 0 1.32 0 2 0 C2 0.66 2 1.32 2 2 C1.34 2 0.68 2 0 2 C0 1.34 0 0.68 0 0 Z " fill="#000000" transform="translate(47,60)"/>
<path d="M0 0 C0.66 0 1.32 0 2 0 C2 0.66 2 1.32 2 2 C1.34 2 0.68 2 0 2 C0 1.34 0 0.68 0 0 Z " fill="#000000" transform="translate(43,60)"/>
<path d="M0 0 C0.66 0 1.32 0 2 0 C2 0.66 2 1.32 2 2 C1.34 2 0.68 2 0 2 C0 1.34 0 0.68 0 0 Z " fill="#000000" transform="translate(39,60)"/>
<path d="M0 0 C0.66 0 1.32 0 2 0 C2 0.66 2 1.32 2 2 C1.34 2 0.68 2 0 2 C0 1.34 0 0.68 0 0 Z " fill="#000000" transform="translate(35,60)"/>
<path d="M0 0 C0.66 0 1.32 0 2 0 C2 0.66 2 1.32 2 2 C1.34 2 0.68 2 0 2 C0 1.34 0 0.68 0 0 Z " fill="#000000" transform="translate(31,60)"/>
<path d="M0 0 C0.66 0 1.32 0 2 0 C2 0.66 2 1.32 2 2 C1.34 2 0.68 2 0 2 C0 1.34 0 0.68 0 0 Z " fill="#000000" transform="translate(27,60)"/>
<path d="M0 0 C0.66 0 1.32 0 2 0 C2 0.66 2 1.32 2 2 C1.34 2 0.68 2 0 2 C0 1.34 0 0.68 0 0 Z " fill="#000000" transform="translate(23,60)"/>
</svg>
