<?xml version="1.0" encoding="UTF-8"?>
<svg version="1.1" xmlns="http://www.w3.org/2000/svg" width="48" height="48">
<path d="M0 0 C3.609375 -0.185625 7.21875 -0.37125 10.9375 -0.5625 C12.05632568 -0.64443604 13.17515137 -0.72637207 14.32788086 -0.81079102 C20.00889208 -0.95089551 23.75966487 -0.17791383 28.21875 3.46875 C34.0077009 10.09973012 32.97672855 17.76693181 32.5625 26.0625 C32.2840625 33.9515625 32.2840625 33.9515625 32 42 C21.44 42 10.88 42 0 42 C0 28.14 0 14.28 0 0 Z " fill="#1A76D2" transform="translate(8,3)"/>
<path d="M0 0 C1.9375 0.375 1.9375 0.375 4 1 C4.33 1.66 4.66 2.32 5 3 C5.33 2.01 5.66 1.02 6 0 C6.99 0 7.98 0 9 0 C9.66 1.32 10.32 2.64 11 4 C11.33 2.68 11.66 1.36 12 0 C12.99 0 13.98 0 15 0 C14.85769192 1.41702513 14.71099254 2.8336096 14.5625 4.25 C14.48128906 5.03890625 14.40007813 5.8278125 14.31640625 6.640625 C14.02365007 8.82364639 13.57935581 10.8773182 13 13 C11.68 13 10.36 13 9 13 C8.67 11.68 8.34 10.36 8 9 C7.34 10.32 6.68 11.64 6 13 C4.68 13 3.36 13 2 13 C1.66127487 11.58461283 1.32925376 10.16762037 1 8.75 C0.814375 7.96109375 0.62875 7.1721875 0.4375 6.359375 C0 4 0 4 0 0 Z " fill="#E2ECF5" transform="translate(16,22)"/>
<path d="M0 0 C6.75 5.625 6.75 5.625 9 9 C6.03 9 3.06 9 0 9 C0 6.03 0 3.06 0 0 Z " fill="#DEEFFC" transform="translate(29,5)"/>
<path d="M0 0 C0.99 0 1.98 0 3 0 C2.67 2.97 2.34 5.94 2 9 C1.01 8.34 0.02 7.68 -1 7 C-0.67 4.69 -0.34 2.38 0 0 Z " fill="#DAE7F4" transform="translate(28,22)"/>
</svg>
